<?xml version="1.0" encoding="utf-8"?>
<!-- Generator: Adobe Illustrator 26.3.1, SVG Export Plug-In . SVG Version: 6.00 Build 0)  -->
<svg version="1.1" id="Layer_1" xmlns="http://www.w3.org/2000/svg" xmlns:xlink="http://www.w3.org/1999/xlink" x="0px" y="0px"
	 viewBox="0 0 512 512" style="enable-background:new 0 0 512 512;" xml:space="preserve">
<style type="text/css">
	.st0{fill:#222F3E;}
</style>
<g>
	<path class="st0" d="M35.84,59.39v10.24h440.32c4.27,0.01,8.05,1.7,10.86,4.5c2.8,2.81,4.49,6.59,4.5,10.86v342.02
		c-0.01,4.27-1.7,8.05-4.5,10.86c-2.81,2.8-6.59,4.49-10.86,4.5H35.84c-4.27-0.01-8.05-1.7-10.86-4.5c-2.8-2.81-4.49-6.59-4.5-10.86
		V84.99c0.01-4.27,1.7-8.05,4.5-10.86c2.81-2.8,6.59-4.49,10.86-4.5V59.39V49.15C16.04,49.16,0.01,65.19,0,84.99v342.02
		c0.01,19.8,16.04,35.83,35.84,35.84h440.32c19.8-0.01,35.83-16.04,35.84-35.84V84.99c-0.01-19.8-16.04-35.83-35.84-35.84H35.84
		V59.39z"/>
	<path class="st0" d="M499.21,417.8L292.9,252.74c-3.77-3.01-9.11-2.99-12.85,0.05L256,272.3l-24.05-19.52
		c-3.74-3.04-9.08-3.06-12.85-0.05L13.17,417.49c-4.42,3.53-5.13,9.98-1.6,14.39c3.53,4.42,9.98,5.13,14.39,1.6l199.49-159.59
		l24.09,19.55c3.77,3.06,9.14,3.06,12.91,0l24.09-19.55l199.88,159.9c4.42,3.53,10.86,2.82,14.39-1.6
		C504.35,427.77,503.63,421.33,499.21,417.8L499.21,417.8z"/>
	<path class="st0" d="M3.86,97.6l245.76,195.9c3.72,2.97,9.04,2.97,12.77,0L508.14,97.6c4.42-3.53,5.15-9.97,1.62-14.39
		c-3.53-4.42-9.97-5.15-14.39-1.62L256,272.4L16.62,81.59c-4.42-3.53-10.87-2.8-14.39,1.62C-1.29,87.64-0.56,94.08,3.86,97.6
		L3.86,97.6z"/>
</g>
</svg>
