<?xml version="1.0" encoding="utf-8"?>
<!-- Generator: Adobe Illustrator 27.5.0, SVG Export Plug-In . SVG Version: 6.00 Build 0)  -->
<svg version="1.1" id="Layer_1" xmlns="http://www.w3.org/2000/svg" xmlns:xlink="http://www.w3.org/1999/xlink" x="0px" y="0px"
	 viewBox="0 0 512 512" style="enable-background:new 0 0 512 512;" xml:space="preserve">
<g>
	<path d="M256,0c-69.47,0-78.21,0.32-105.5,1.54c-27.3,1.28-45.89,5.57-62.18,11.9c-17.08,6.43-32.56,16.51-45.34,29.54
		c-13.02,12.79-23.1,28.26-29.54,45.34C7.1,104.58,2.78,123.2,1.54,150.4C0.32,177.76,0,186.46,0,256.03
		c0,69.5,0.32,78.21,1.54,105.5c1.28,27.26,5.57,45.86,11.9,62.14c6.56,16.83,15.3,31.1,29.54,45.34
		c14.21,14.24,28.48,23.01,45.31,29.54c16.32,6.34,34.88,10.66,62.14,11.9C177.76,511.68,186.46,512,256,512s78.21-0.32,105.54-1.54
		c27.23-1.28,45.89-5.57,62.18-11.9c17.07-6.43,32.54-16.51,45.31-29.54c14.24-14.24,22.98-28.51,29.54-45.34
		c6.3-16.29,10.62-34.88,11.9-62.14c1.22-27.3,1.54-36,1.54-105.54s-0.32-78.24-1.54-105.57c-1.28-27.23-5.6-45.86-11.9-62.11
		c-6.43-17.08-16.51-32.55-29.54-45.34c-12.78-13.03-28.26-23.12-45.34-29.54C407.36,7.1,388.74,2.78,361.5,1.54
		C334.18,0.32,325.5,0,255.94,0h0.1H256z M233.06,46.14h22.98c68.35,0,76.45,0.22,103.42,1.47c24.96,1.12,38.53,5.31,47.55,8.8
		c11.94,4.64,20.48,10.21,29.44,19.17c8.96,8.96,14.5,17.47,19.14,29.44c3.52,8.99,7.68,22.56,8.8,47.52
		c1.25,26.98,1.5,35.07,1.5,103.39s-0.26,76.45-1.5,103.42c-1.12,24.96-5.31,38.5-8.8,47.52c-4.1,11.12-10.66,21.17-19.17,29.41
		c-8.96,8.96-17.47,14.5-29.44,19.14c-8.96,3.52-22.53,7.68-47.52,8.83c-26.98,1.22-35.07,1.5-103.42,1.5s-76.48-0.29-103.46-1.5
		c-24.96-1.15-38.5-5.31-47.52-8.83c-11.12-4.1-21.18-10.64-29.44-19.14c-8.52-8.25-15.08-18.31-19.2-29.44
		c-3.49-8.99-7.68-22.56-8.8-47.52c-1.22-26.98-1.47-35.07-1.47-103.46c0-68.35,0.26-76.42,1.47-103.39
		c1.15-24.96,5.31-38.53,8.83-47.55c4.64-11.94,10.21-20.48,19.17-29.44s17.47-14.5,29.44-19.14c9.02-3.52,22.56-7.68,47.52-8.83
		c23.62-1.09,32.77-1.41,80.48-1.44L233.06,46.14z M392.67,88.64c-16.97,0-30.72,13.75-30.72,30.72s13.75,30.72,30.72,30.72
		s30.72-13.75,30.72-30.72S409.64,88.64,392.67,88.64z M256.03,124.54c-72.61-1.13-132.39,56.81-133.52,129.42
		c-1.13,72.61,56.81,132.39,129.42,133.52h4.1c72.61-1.13,130.55-60.91,129.42-133.52C384.34,182.95,327.04,125.65,256.03,124.54z
		 M256.03,170.66c47.13-0.02,85.36,38.17,85.38,85.31s-38.17,85.36-85.31,85.38h-0.07c-47.13,0-85.34-38.21-85.34-85.34
		S208.9,170.66,256.03,170.66z"/>
</g>
</svg>
