<?xml version="1.0" encoding="utf-8"?>
<!-- Generator: Adobe Illustrator 24.1.1, SVG Export Plug-In . SVG Version: 6.00 Build 0)  -->
<svg version="1.1" id="Layer_1" xmlns="http://www.w3.org/2000/svg" xmlns:xlink="http://www.w3.org/1999/xlink" x="0px" y="0px"
	 viewBox="0 0 512 512" style="enable-background:new 0 0 512 512;" xml:space="preserve">
<g>
	<path d="M256,0c44.4,0,82.1,15.6,113.3,46.7S416,115.6,416,160c0,45.2-13.2,97.1-39.7,155.5s-53.3,106-80.6,142.7L256,512
		c-4.3-5.1-10-12.6-17.3-22.4c-7.3-9.8-20.1-28.8-38.4-57c-18.3-28.2-34.6-55.9-48.6-83.2c-14.1-27.3-26.9-58.7-38.4-94.1
		S96,188.2,96,160c0-44.4,15.6-82.1,46.7-113.3S211.6,0,256,0 M256,248.3c23.9,0,44.4-8.5,61.4-25.6s25.6-37.5,25.6-61.4
		s-8.5-44.2-25.6-60.8s-37.5-25-61.4-25s-44.2,8.3-60.8,25s-25,36.9-25,60.8s8.3,44.4,25,61.4S232.1,248.3,256,248.3"/>
</g>
</svg>
