<?xml version="1.0" encoding="utf-8"?>
<!-- Generator: Adobe Illustrator 21.0.0, SVG Export Plug-In . SVG Version: 6.00 Build 0)  -->
<svg version="1.1" id="Layer_1" xmlns="http://www.w3.org/2000/svg" xmlns:xlink="http://www.w3.org/1999/xlink" x="0px" y="0px"
	 viewBox="0 0 512 512" style="enable-background:new 0 0 512 512;" xml:space="preserve">
<g>
	<path d="M282.8,0.1v35.3c106.9,0,194,87,194,194H512C512,102.9,409.2,0.1,282.8,0.1z M100.3,53.1c-9.3,0-18.5,3-26,9.1l-0.9,0.7
		l-55.4,57.2l1.2-1.1C0.8,134.8-4.3,159.7,3.6,180.7C18.4,223.6,56.3,306.4,131,381c74.9,75,158.6,111.2,200,127.4l0.4,0.1l0.4,0.1
		c21.4,7.2,44.5,2.1,61.1-12.1l0.5-0.4l55.1-55.1c14.6-14.6,14.6-40.3,0-54.9l-72.3-72.3c-14.7-14.7-40.3-14.7-55,0l-35,35
		c-12.5-6-43.3-21.5-72.6-49.4c-28.9-27.6-43.7-59.4-49-71.7l35.3-35.3c15.5-15.5,16.4-42-1.5-56.2l1.6,1.5l-73-74.8l-0.8-0.7
		C118.8,56.1,109.5,53.1,100.3,53.1z M282.8,70.6v35.3c68,0,123.4,55.4,123.4,123.4h35.3C441.5,141.8,370.3,70.6,282.8,70.6z
		 M100.3,88.2l3.7,1.4l71.7,73.4l0.9,0.7c-0.2-0.2,0.7,1.5-1.5,3.7L123,219.6l4,10.6c0,0,19.9,54.1,62.4,94.7
		c41.8,39.9,93.4,61.7,93.4,61.7l11,4.7l52.5-52.5c3-3,2.1-3,5.1,0l72.3,72.3c3,3,3,2,0,5L370,469.8c-8.2,7-16.6,8.8-26.8,5.4
		c-39.9-15.6-117.9-49.7-187.2-119.1C86.2,286.4,50,207.2,36.8,168.8l-0.1-0.2l-0.1-0.2c-2.7-7.1-0.7-17.3,5.5-22.7l0.6-0.5
		l53.9-55.5L100.3,88.2z M282.8,141.1v35.3c29.2,0,52.9,23.7,52.9,52.9h35.3C370.9,180.7,331.4,141.1,282.8,141.1z"/>
</g>
</svg>
